<svg width="18" height="19" viewBox="0 0 18 19" fill="none" xmlns="http://www.w3.org/2000/svg">
<path d="M1.89957 6.90328C1.55393 7.6419 1.19409 8.20533 1.64863 9.17122C2.84652 11.7374 7.34925 11.5954 7.58126 9.09546L7.76118 7.14475C7.76754 7.04324 7.74104 6.94238 7.68561 6.85711C7.63018 6.77183 7.54877 6.70667 7.45342 6.67127C4.70727 5.6533 5.1334 7.53773 2.463 6.67127C2.3568 6.63744 2.24207 6.64216 2.13901 6.6846C2.03594 6.72704 1.95115 6.80447 1.89957 6.90328ZM16.3737 10.5869C16.8187 9.63996 16.4589 9.06232 16.118 8.3237C15.7771 7.58508 14.9769 8.79717 13.2251 8.07276C12.638 7.82655 11.9798 7.5472 10.5499 8.07276C10.4546 8.10815 10.3732 8.17331 10.3177 8.25859C10.2623 8.34387 10.2358 8.44472 10.2422 8.54623L10.4221 10.5159C10.6494 12.9969 15.1568 13.1863 16.3737 10.5869Z" fill="#BE2C55"/>
<path d="M17.2781 17.0782L15.9855 17.4239L14.9439 13.5603C17.2734 12.7033 18.6512 10.3881 17.6948 8.35212L15.4742 3.61739C15.4354 3.50856 15.3581 3.41769 15.2569 3.36187C15.1558 3.30606 15.0377 3.28916 14.9249 3.31436L9.40424 4.78213L9.47526 4.0151C9.48571 3.90351 9.45623 3.79183 9.39208 3.69993C9.32792 3.60803 9.23324 3.54187 9.12489 3.51322L3.07863 1.89394C2.97107 1.86599 2.85712 1.87677 2.75671 1.92438C2.6563 1.97198 2.57583 2.05339 2.5294 2.15435L0.308805 6.88909C-0.666551 8.98184 0.782279 11.2735 3.05969 12.0973L2.01805 16.0035L0.725462 15.6578C0.605901 15.63 0.480195 15.6496 0.37486 15.7127C0.269524 15.7757 0.192796 15.8772 0.160859 15.9958C0.128921 16.1143 0.144273 16.2406 0.203674 16.3481C0.263076 16.4555 0.361884 16.5356 0.479255 16.5716L3.97823 17.5186C4.1038 17.5506 4.23695 17.5314 4.34839 17.4653C4.45982 17.3991 4.54042 17.2914 4.57244 17.1658C4.60446 17.0403 4.58528 16.9071 4.51913 16.7957C4.45298 16.6842 4.34527 16.6037 4.2197 16.5716L2.93185 16.2307C3.04548 15.8141 3.95929 12.4429 3.97823 12.3624C6.53025 12.7886 8.4857 11.4486 8.92129 9.68732C9.03019 10.8805 9.01599 12.0547 10.4743 13.0821C11.5185 13.7768 12.7956 14.0288 14.0253 13.7829C14.0253 13.8444 14.1863 14.37 15.0717 17.6511L13.7839 17.9921C13.6583 18.0084 13.5444 18.0739 13.4671 18.1743C13.3899 18.2746 13.3556 18.4015 13.3719 18.5271C13.3883 18.6527 13.4538 18.7666 13.5542 18.8438C13.6545 18.9211 13.7814 18.9553 13.907 18.939C14.0301 18.939 16.4685 18.2761 17.5243 17.9921C17.6417 17.9561 17.7405 17.8759 17.7999 17.7685C17.8593 17.661 17.8746 17.5347 17.8427 17.4162C17.8108 17.2977 17.734 17.1962 17.6287 17.1331C17.5234 17.0701 17.3977 17.0504 17.2781 17.0782ZM8.05484 9.14283C7.9128 10.7384 6.0189 11.9837 3.76516 11.3634C1.83813 10.8521 0.379826 8.99605 1.17526 7.31995L3.2254 2.92611L8.4999 4.34654L8.05484 9.14283ZM11.0188 12.3104C10.7223 12.1164 10.4726 11.8591 10.2876 11.557C10.1026 11.2548 9.98682 10.9155 9.94873 10.5632L9.50367 5.74802L14.7782 4.3276L16.8283 8.72143C18.1209 11.4771 13.7365 14.2043 11.0188 12.3104Z" fill="#BE2C55"/>
<path d="M7.71888 2.70354C7.80804 2.79269 7.92896 2.84278 8.05505 2.84278C8.18114 2.84278 8.30206 2.79269 8.39122 2.70354C8.48037 2.61438 8.53046 2.49346 8.53046 2.36737C8.53046 2.24128 8.48037 2.12036 8.39122 2.0312L7.44427 1.08426C7.40012 1.04011 7.34771 1.00509 7.29003 0.981199C7.23235 0.957307 7.17053 0.94501 7.1081 0.94501C6.98201 0.94501 6.86109 0.995098 6.77194 1.08426C6.68278 1.17341 6.63269 1.29433 6.63269 1.42042C6.63269 1.54651 6.68278 1.66743 6.77194 1.75659L7.71888 2.70354ZM9.94894 1.8939V0.473474C9.94894 0.347901 9.89906 0.227471 9.81027 0.138677C9.72147 0.0498837 9.60104 0 9.47547 0C9.3499 0 9.22947 0.0498837 9.14067 0.138677C9.05188 0.227471 9.002 0.347901 9.002 0.473474V1.8939C9.002 2.01947 9.05188 2.1399 9.14067 2.22869C9.22947 2.31749 9.3499 2.36737 9.47547 2.36737C9.60104 2.36737 9.72147 2.31749 9.81027 2.22869C9.89906 2.1399 9.94894 2.01947 9.94894 1.8939ZM10.8959 2.84084C11.1516 2.84084 11.1658 2.76982 12.179 1.75659C12.2682 1.66743 12.3183 1.54651 12.3183 1.42042C12.3183 1.29433 12.2682 1.17341 12.179 1.08426C12.0898 0.995098 11.9689 0.94501 11.8428 0.94501C11.7168 0.94501 11.5958 0.995098 11.5067 1.08426L10.5597 2.0312C10.493 2.09743 10.4474 2.18204 10.4289 2.27425C10.4104 2.36645 10.4198 2.46208 10.4559 2.54894C10.4919 2.63579 10.553 2.70994 10.6314 2.76193C10.7098 2.81392 10.8018 2.84139 10.8959 2.84084Z" fill="#BE2C55"/>
</svg>
